<svg width="709" height="209" viewBox="0 0 709 209" fill="none" xmlns="http://www.w3.org/2000/svg">
<path d="M90.4526 164.22C94.3161 164.985 98.3402 165.392 102.5 165.392V206.392C95.6544 206.392 88.966 205.718 82.4961 204.438L90.4526 164.22ZM122.503 204.438C116.034 205.718 109.345 206.392 102.5 206.392V165.392C106.66 165.392 110.684 164.985 114.547 164.22L122.503 204.438ZM51.3345 138.034C55.8363 144.758 61.6343 150.556 68.3586 155.058L45.5501 189.126C34.3723 181.642 24.7489 172.019 17.2656 160.841L51.3345 138.034ZM187.734 160.841C180.25 172.019 170.627 181.642 159.449 189.126L136.641 155.058C143.366 150.556 149.164 144.758 153.666 138.034L187.734 160.841ZM0 103.892C0 97.0465 0.673201 90.3581 1.95316 83.8882L42.1718 91.8447C41.4075 95.7081 41 99.7323 41 103.892C41 108.052 41.4075 112.076 42.1718 115.939L1.95316 123.895C0.673278 117.426 0 110.737 0 103.892ZM205 103.892C205 110.737 204.326 117.426 203.046 123.895L162.828 115.939C163.593 112.076 164 108.052 164 103.892C164 99.7323 163.593 95.7081 162.828 91.8447L203.046 83.8882C204.326 90.3581 205 97.0465 205 103.892ZM68.3586 52.7265C61.6343 57.2284 55.8363 63.0263 51.3345 69.7507L17.2656 46.9422C24.7489 35.7644 34.3723 26.141 45.5501 18.6577L68.3586 52.7265ZM159.449 18.6577C170.627 26.141 180.25 35.7644 187.734 46.9422L153.666 69.7507C149.164 63.0263 143.366 57.2284 136.641 52.7265L159.449 18.6577ZM102.5 1.39209C109.345 1.39209 116.034 2.06537 122.503 3.34525L114.547 43.5639C110.684 42.7996 106.66 42.3921 102.5 42.3921C98.3402 42.3921 94.3161 42.7996 90.4526 43.5639L82.4961 3.34525C88.966 2.06529 95.6544 1.39209 102.5 1.39209Z" fill="#FAFAF9"/>
<path d="M505.183 208.184C498.442 208.184 492.468 206.989 487.263 204.6C482.058 202.211 477.962 198.712 474.975 194.104C472.074 189.411 470.623 183.736 470.623 177.08V173.88H484.319V177.08C484.319 183.395 486.196 188.131 489.951 191.288C493.791 194.445 498.868 196.024 505.183 196.024C511.583 196.024 516.404 194.701 519.647 192.056C522.89 189.325 524.511 185.827 524.511 181.56C524.511 178.744 523.743 176.44 522.207 174.648C520.671 172.856 518.495 171.448 515.679 170.424C512.863 169.315 509.492 168.291 505.567 167.352L500.831 166.2C495.114 164.835 490.122 163.171 485.855 161.208C481.674 159.16 478.431 156.472 476.127 153.144C473.823 149.816 472.671 145.549 472.671 140.344C472.671 135.053 473.951 130.531 476.511 126.776C479.156 123.021 482.783 120.12 487.391 118.072C491.999 116.024 497.418 115 503.647 115C509.876 115 515.423 116.067 520.287 118.2C525.236 120.333 529.119 123.491 531.935 127.672C534.751 131.853 536.159 137.101 536.159 143.416V148.024H522.463V143.416C522.463 139.576 521.652 136.461 520.031 134.072C518.495 131.683 516.319 129.933 513.503 128.824C510.687 127.715 507.402 127.16 503.647 127.16C498.186 127.16 493.919 128.312 490.847 130.616C487.86 132.835 486.367 135.949 486.367 139.96C486.367 142.691 487.007 144.952 488.287 146.744C489.652 148.451 491.615 149.859 494.175 150.968C496.735 152.077 499.935 153.059 503.775 153.912L508.511 155.064C514.314 156.344 519.434 158.008 523.871 160.056C528.308 162.019 531.807 164.707 534.367 168.12C536.927 171.533 538.207 175.928 538.207 181.304C538.207 186.68 536.842 191.373 534.111 195.384C531.466 199.395 527.668 202.552 522.719 204.856C517.77 207.075 511.924 208.184 505.183 208.184Z" fill="#FAFAF9"/>
<path d="M386.516 206.392V194.104H398.548V129.08H386.516V116.792H431.956C437.332 116.792 442.025 117.731 446.036 119.608C450.047 121.4 453.161 124.003 455.38 127.416C457.684 130.744 458.836 134.712 458.836 139.32V140.6C458.836 144.696 458.068 148.067 456.532 150.712C454.996 153.357 453.119 155.405 450.9 156.856C448.767 158.307 446.719 159.331 444.756 159.928V161.976C446.719 162.488 448.809 163.512 451.028 165.048C453.332 166.499 455.252 168.547 456.788 171.192C458.409 173.837 459.22 177.293 459.22 181.56V182.84C459.22 187.789 458.068 192.013 455.764 195.512C453.46 199.011 450.26 201.699 446.164 203.576C442.153 205.453 437.503 206.392 432.212 206.392H386.516ZM412.5 193.848H430.548C435.156 193.848 438.783 192.739 441.428 190.52C444.073 188.301 445.396 185.229 445.396 181.304V180.152C445.396 176.227 444.073 173.155 441.428 170.936C438.868 168.717 435.241 167.608 430.548 167.608H412.5V193.848ZM412.5 154.936H430.548C434.9 154.936 438.399 153.869 441.044 151.736C443.689 149.517 445.012 146.531 445.012 142.776V141.496C445.012 137.741 443.689 134.797 441.044 132.664C438.484 130.445 434.985 129.336 430.548 129.336H412.5V154.936Z" fill="#FAFAF9"/>
<path d="M302.313 206.392L327.913 116.792H352.233L377.705 206.392H363.497L357.609 185.272H322.537L316.649 206.392H302.313ZM325.993 172.472H354.153L341.097 125.368H339.049L325.993 172.472Z" fill="#FAFAF9"/>
<path d="M239.344 206.392V116.792H253.168V193.848H296.304V206.392H239.344Z" fill="#FAFAF9"/>
<path d="M633.438 91.392L659.038 1.79199H683.358L708.83 91.392H694.622L688.734 70.272H653.662L647.774 91.392H633.438ZM657.118 57.472H685.278L672.222 10.368H670.174L657.118 57.472Z" fill="#FAFAF9"/>
<path d="M570.469 91.392V1.79199H584.293V78.848H627.429V91.392H570.469Z" fill="#FAFAF9"/>
<path d="M518.008 93.184C507 93.184 498.253 90.112 491.768 83.968C485.283 77.7387 482.04 68.7787 482.04 57.088V36.096C482.04 24.4053 485.283 15.488 491.768 9.344C498.253 3.11467 507 0 518.008 0C529.016 0 537.763 3.11467 544.248 9.344C550.819 15.488 554.104 24.4053 554.104 36.096V57.088C554.104 68.7787 550.819 77.7387 544.248 83.968C537.763 90.112 529.016 93.184 518.008 93.184ZM518.008 80.768C525.091 80.768 530.552 78.72 534.392 74.624C538.232 70.4427 540.152 64.768 540.152 57.6V35.584C540.152 28.416 538.232 22.784 534.392 18.688C530.552 14.5067 525.091 12.416 518.008 12.416C511.096 12.416 505.677 14.5067 501.752 18.688C497.827 22.784 495.864 28.416 495.864 35.584V57.6C495.864 64.768 497.827 70.4427 501.752 74.624C505.677 78.72 511.096 80.768 518.008 80.768Z" fill="#FAFAF9"/>
<path d="M407.219 91.392V1.79199H442.803C448.264 1.79199 453.128 2.90133 457.395 5.12C461.747 7.25333 465.117 10.3253 467.507 14.336C469.981 18.2613 471.219 22.9973 471.219 28.544V30.208C471.219 35.7547 469.939 40.5333 467.379 44.544C464.904 48.5547 461.533 51.6267 457.267 53.76C453 55.8933 448.179 56.96 442.803 56.96H421.043V91.392H407.219ZM421.043 44.416H441.395C446.259 44.416 450.141 43.136 453.043 40.576C455.944 38.016 457.395 34.5173 457.395 30.08V28.8C457.395 24.2773 455.944 20.736 453.043 18.176C450.141 15.616 446.259 14.336 441.395 14.336H421.043V44.416Z" fill="#FAFAF9"/>
<path d="M355.13 93.184C348.047 93.184 341.946 91.904 336.826 89.344C331.791 86.784 327.866 83.1147 325.05 78.336C322.319 73.472 320.954 67.584 320.954 60.672V1.79199H334.906V61.056C334.906 67.3707 336.655 72.2347 340.154 75.648C343.653 79.0613 348.645 80.768 355.13 80.768C361.615 80.768 366.607 79.0613 370.106 75.648C373.605 72.2347 375.354 67.3707 375.354 61.056V1.79199H389.178V60.672C389.178 67.584 387.813 73.472 385.082 78.336C382.351 83.1147 378.426 86.784 373.306 89.344C368.186 91.904 362.127 93.184 355.13 93.184Z" fill="#FAFAF9"/>
<path d="M272.624 93.184C261.701 93.184 253.04 90.112 246.64 83.968C240.24 77.7387 237.04 68.7787 237.04 57.088V36.096C237.04 24.4053 240.24 15.488 246.64 9.344C253.04 3.11467 261.701 0 272.624 0C283.376 0 291.653 2.98667 297.456 8.96C303.344 14.9333 306.288 23.0827 306.288 33.408V34.176H292.592V33.024C292.592 26.9653 290.928 22.016 287.6 18.176C284.357 14.336 279.365 12.416 272.624 12.416C265.797 12.416 260.464 14.5067 256.624 18.688C252.784 22.784 250.864 28.5013 250.864 35.84V57.344C250.864 64.5973 252.784 70.3147 256.624 74.496C260.464 78.6773 265.797 80.768 272.624 80.768C279.365 80.768 284.357 78.848 287.6 75.008C290.928 71.0827 292.592 66.1333 292.592 60.16V57.984H306.288V59.776C306.288 70.1013 303.344 78.2507 297.456 84.224C291.653 90.1973 283.376 93.184 272.624 93.184Z" fill="#FAFAF9"/>
</svg>
