<svg width="512" height="512" viewBox="0 0 512 512" fill="none" xmlns="http://www.w3.org/2000/svg">
<path d="M225.911 406.673C235.56 408.582 245.611 409.6 256 409.6V512C238.903 512 222.198 510.317 206.039 507.12L225.911 406.673ZM305.959 507.12C289.801 510.317 273.097 512 256 512V409.6C266.389 409.6 276.44 408.582 286.089 406.673L305.959 507.12ZM128.211 341.27C139.455 358.065 153.935 372.545 170.73 383.789L113.764 468.877C85.8469 450.186 61.8119 426.152 43.1219 398.234L128.211 341.27ZM468.877 398.234C450.186 426.152 426.152 450.186 398.234 468.877L341.27 383.789C358.065 372.545 372.545 358.065 383.789 341.27L468.877 398.234ZM0 256C0 238.903 1.68136 222.198 4.87813 206.039L105.327 225.911C103.418 235.56 102.4 245.611 102.4 256C102.4 266.389 103.418 276.44 105.327 286.089L4.87813 305.959C1.68155 289.801 0 273.097 0 256ZM512 256C512 273.097 510.317 289.801 507.12 305.959L406.673 286.089C408.582 276.44 409.6 266.389 409.6 256C409.6 245.611 408.582 235.56 406.673 225.911L507.12 206.039C510.317 222.198 512 238.903 512 256ZM170.73 128.211C153.935 139.455 139.455 153.935 128.211 170.73L43.1219 113.764C61.8119 85.8469 85.8469 61.8119 113.764 43.1219L170.73 128.211ZM398.234 43.1219C426.152 61.8119 450.186 85.8469 468.877 113.764L383.789 170.73C372.545 153.935 358.065 139.455 341.27 128.211L398.234 43.1219ZM256 0C273.097 0 289.801 1.68155 305.959 4.87813L286.089 105.327C276.44 103.418 266.389 102.4 256 102.4C245.611 102.4 235.56 103.418 225.911 105.327L206.039 4.87813C222.198 1.68136 238.903 0 256 0Z" fill="#FFF4B9"/>
</svg>
