<svg width="512" height="142" viewBox="0 0 512 142" fill="none" xmlns="http://www.w3.org/2000/svg">
<path d="M334.062 89.3953C335.586 89.697 337.174 89.8578 338.815 89.8578V106.043C336.114 106.043 333.476 105.777 330.923 105.272L334.062 89.3953ZM346.706 105.272C344.153 105.777 341.515 106.043 338.815 106.043V89.8578C340.455 89.8578 342.043 89.697 343.567 89.3953L346.706 105.272ZM318.631 79.0575C320.406 81.712 322.694 84.0009 325.346 85.7781L316.349 99.2272C311.939 96.273 308.143 92.474 305.191 88.0614L318.631 79.0575ZM372.438 88.0614C369.486 92.4741 365.69 96.273 361.28 99.2272L352.283 85.7781C354.935 84.0009 357.223 81.712 358.999 79.0575L372.438 88.0614ZM298.38 65.5795C298.38 62.877 298.645 60.2366 299.15 57.6825L315.016 60.8235C314.714 62.3487 314.554 63.9373 314.554 65.5795C314.554 67.2216 314.714 68.8102 315.016 70.3354L299.15 73.4762C298.645 70.9221 298.38 68.2818 298.38 65.5795ZM379.249 65.5795C379.249 68.2818 378.983 70.9221 378.478 73.4762L362.613 70.3354C362.915 68.8102 363.075 67.2216 363.075 65.5795C363.075 63.9373 362.915 62.3487 362.613 60.8235L378.478 57.6825C378.983 60.2367 379.249 62.877 379.249 65.5795ZM325.346 45.3808C322.694 47.158 320.406 49.4469 318.631 52.1014L305.191 43.0973C308.143 38.6847 311.939 34.8856 316.349 31.9314L325.346 45.3808ZM361.28 31.9314C365.69 34.8856 369.486 38.6846 372.438 43.0973L358.999 52.1014C357.223 49.4469 354.935 47.158 352.283 45.3808L361.28 31.9314ZM338.815 25.1155C341.515 25.1155 344.153 25.3813 346.706 25.8865L343.567 41.7636C342.043 41.4619 340.455 41.3011 338.815 41.3011C337.174 41.3011 335.586 41.4619 334.062 41.7636L330.923 25.8865C333.476 25.3812 336.114 25.1155 338.815 25.1155Z" fill="#FFF4B9"/>
<path d="M428.921 64.9305C428.921 56.8377 430.426 49.733 433.435 43.6163C436.538 37.4997 440.722 32.7946 445.988 29.501C451.254 26.2074 457.131 24.5607 463.619 24.5607C469.167 24.5607 474.01 25.6899 478.148 27.9483C482.379 30.2068 485.623 33.171 487.88 36.841V25.6899H512V104.453H487.88V93.3022C485.529 96.9722 482.238 99.9364 478.007 102.195C473.869 104.453 469.026 105.583 463.478 105.583C457.084 105.583 451.254 103.936 445.988 100.642C440.722 97.2545 436.538 92.5024 433.435 86.3857C430.426 80.175 428.921 73.0232 428.921 64.9305ZM487.88 65.0716C487.88 59.0491 486.187 54.2969 482.802 50.8151C479.511 47.3333 475.468 45.5925 470.672 45.5925C465.876 45.5925 461.786 47.3333 458.401 50.8151C455.109 54.2028 453.464 58.9079 453.464 64.9305C453.464 70.953 455.109 75.7522 458.401 79.3281C461.786 82.8098 465.876 84.5508 470.672 84.5508C475.468 84.5508 479.511 82.8098 482.802 79.3281C486.187 75.8463 487.88 71.0941 487.88 65.0716Z" fill="#FFF4B9"/>
<path d="M416.238 0V104.453H392.118V0H416.238Z" fill="#FFF4B9"/>
<path d="M230.696 36.841C233.047 33.171 236.291 30.2068 240.428 27.9483C244.566 25.6899 249.409 24.5607 254.956 24.5607C261.445 24.5607 267.322 26.2074 272.588 29.501C277.854 32.7946 281.991 37.4997 285 43.6163C288.103 49.733 289.655 56.8377 289.655 64.9305C289.655 73.0232 288.103 80.175 285 86.3857C281.991 92.5024 277.854 97.2545 272.588 100.642C267.322 103.936 261.445 105.583 254.956 105.583C249.503 105.583 244.66 104.453 240.428 102.195C236.291 99.9364 233.047 97.0192 230.696 93.4434V142H206.576V25.6899H230.696V36.841ZM265.112 64.9305C265.112 58.9079 263.42 54.2028 260.034 50.8151C256.743 47.3333 252.653 45.5925 247.763 45.5925C242.967 45.5925 238.877 47.3333 235.492 50.8151C232.2 54.2969 230.555 59.0491 230.555 65.0716C230.555 71.0941 232.2 75.8463 235.492 79.3281C238.877 82.8098 242.967 84.5508 247.763 84.5508C252.559 84.5508 256.649 82.8098 260.034 79.3281C263.42 75.7522 265.112 70.953 265.112 64.9305Z" fill="#FFF4B9"/>
<path d="M189.25 25.6898V104.453H165.131V93.7256C162.686 97.2074 159.348 100.03 155.116 102.195C150.979 104.265 146.371 105.3 141.293 105.3C135.275 105.3 129.962 103.983 125.354 101.348C120.747 98.6189 117.173 94.7137 114.634 89.6322C112.096 84.5507 110.826 78.5752 110.826 71.7058V25.6898H134.805V68.4592C134.805 73.7289 136.168 77.8223 138.895 80.7395C141.622 83.6567 145.289 85.1153 149.897 85.1153C154.599 85.1153 158.313 83.6567 161.04 80.7395C163.767 77.8223 165.131 73.7289 165.131 68.4592V25.6898H189.25Z" fill="#FFF4B9"/>
<path d="M0 54.7674C0 44.9808 2.11577 36.2764 6.34729 28.6541C10.5788 20.9377 16.4559 14.9623 23.9786 10.7277C31.5954 6.39897 40.1994 4.23462 49.7909 4.23462C61.5451 4.23462 71.6068 7.33999 79.9758 13.5507C88.3448 19.7615 93.9398 28.2306 96.7608 38.9583H70.2433C68.2686 34.8178 65.4475 31.6654 61.7802 29.501C58.2069 27.3367 54.1165 26.2545 49.5088 26.2545C42.0801 26.2545 36.0619 28.8423 31.4543 34.0179C26.8466 39.1935 24.5428 46.11 24.5428 54.7674C24.5428 63.4248 26.8466 70.3413 31.4543 75.5169C36.0619 80.6926 42.0801 83.2803 49.5088 83.2803C54.1165 83.2803 58.2069 82.1982 61.7802 80.0338C65.4475 77.8695 68.2686 74.7171 70.2433 70.5766H96.7608C93.9398 81.3042 88.3448 89.7734 79.9758 95.9841C71.6068 102.101 61.5451 105.159 49.7909 105.159C40.1994 105.159 31.5954 103.042 23.9786 98.8072C16.4559 94.4785 10.5788 88.503 6.34729 80.8808C2.11577 73.2585 0 64.554 0 54.7674Z" fill="#FFF4B9"/>
<path d="M502.607 141.876C500.891 141.876 499.363 141.582 498.023 140.994C496.683 140.406 495.625 139.606 494.849 138.595C494.073 137.56 493.638 136.407 493.544 135.136H499.504C499.574 135.819 499.892 136.372 500.456 136.795C501.02 137.218 501.714 137.43 502.536 137.43C503.289 137.43 503.865 137.289 504.264 137.007C504.687 136.701 504.899 136.313 504.899 135.842C504.899 135.278 504.605 134.866 504.017 134.607C503.43 134.325 502.478 134.019 501.161 133.69C499.751 133.36 498.575 133.019 497.635 132.666C496.695 132.29 495.884 131.713 495.202 130.937C494.52 130.137 494.179 129.067 494.179 127.726C494.179 126.597 494.485 125.573 495.096 124.656C495.731 123.715 496.648 122.974 497.847 122.433C499.069 121.892 500.515 121.621 502.184 121.621C504.652 121.621 506.592 122.233 508.002 123.456C509.436 124.679 510.259 126.303 510.471 128.326H504.899C504.805 127.644 504.499 127.102 503.982 126.703C503.489 126.303 502.83 126.103 502.008 126.103C501.302 126.103 500.762 126.244 500.385 126.526C500.009 126.785 499.821 127.15 499.821 127.62C499.821 128.185 500.115 128.608 500.703 128.89C501.314 129.173 502.254 129.455 503.524 129.737C504.981 130.114 506.169 130.49 507.085 130.867C508.002 131.219 508.801 131.808 509.483 132.631C510.188 133.431 510.553 134.513 510.576 135.877C510.576 137.03 510.247 138.065 509.589 138.983C508.954 139.877 508.026 140.583 506.803 141.1C505.604 141.618 504.206 141.876 502.607 141.876Z" fill="#FFF4B9"/>
<path d="M476.698 124.691C477.262 123.774 478.073 123.032 479.131 122.468C480.189 121.903 481.4 121.621 482.763 121.621C484.385 121.621 485.854 122.033 487.171 122.856C488.487 123.679 489.522 124.856 490.274 126.385C491.05 127.914 491.438 129.69 491.438 131.713C491.438 133.737 491.05 135.525 490.274 137.077C489.522 138.606 488.487 139.794 487.171 140.641C485.854 141.465 484.385 141.876 482.763 141.876C481.376 141.876 480.165 141.606 479.131 141.065C478.097 140.5 477.286 139.759 476.698 138.842V141.594H470.668V115.481H476.698V124.691ZM485.302 131.713C485.302 130.208 484.879 129.031 484.033 128.185C483.21 127.314 482.187 126.879 480.965 126.879C479.766 126.879 478.743 127.314 477.897 128.185C477.074 129.055 476.663 130.243 476.663 131.749C476.663 133.254 477.074 134.442 477.897 135.313C478.743 136.183 479.766 136.618 480.965 136.618C482.164 136.618 483.186 136.183 484.033 135.313C484.879 134.419 485.302 133.219 485.302 131.713Z" fill="#FFF4B9"/>
<path d="M445.536 131.713C445.536 129.69 445.912 127.914 446.664 126.385C447.44 124.856 448.486 123.68 449.802 122.856C451.119 122.033 452.588 121.621 454.21 121.621C455.597 121.621 456.808 121.903 457.842 122.468C458.9 123.033 459.711 123.774 460.275 124.691V121.903H466.305V141.594H460.275V138.806C459.688 139.724 458.865 140.465 457.807 141.03C456.773 141.594 455.562 141.876 454.175 141.876C452.576 141.876 451.119 141.465 449.802 140.641C448.486 139.794 447.44 138.606 446.664 137.077C445.912 135.525 445.536 133.737 445.536 131.713ZM460.275 131.749C460.275 130.243 459.852 129.055 459.006 128.185C458.183 127.314 457.172 126.879 455.973 126.879C454.774 126.879 453.752 127.314 452.906 128.185C452.083 129.032 451.671 130.208 451.671 131.713C451.671 133.219 452.083 134.419 452.906 135.313C453.752 136.183 454.774 136.619 455.973 136.619C457.172 136.619 458.183 136.183 459.006 135.313C459.852 134.442 460.275 133.254 460.275 131.749Z" fill="#FFF4B9"/>
<path d="M435.96 136.936H443.859V141.594H429.93V116.822H435.96V136.936Z" fill="#FFF4B9"/>
</svg>
